@startuml

entity User #fff8bd {}
entity User.username #fffbdc {}
entity User.id #fffbdc {}
entity User.password #fffbdc {}

entity Manager #aed3ff {}
entity Manager.datasets #e0eeff {}

Manager -l-|> User

entity Dataset #86baff {}
entity Dataset.name #e0eeff {}
entity Dataset.id #e0eeff {}
entity Dataset.authors #e0eeff {}
entity Dataset.concepts_id #e0eeff {}
entity Dataset.entities_id #e0eeff {}
entity Dataset.datapoints_id #e0eeff {}
entity Dataset.synonyms #e0eeff {}
entity Dataset.metadata #e0eeff {}

Manager "0, *"-r-"1, *" Dataset

entity Concepts #aed3ff {}
entity Concepts.name #e0eeff {}
entity Concepts.id #e0eeff {}
entity Concepts.authors #e0eeff {}
entity Concepts.UNIQUE #e0eeff {}

Concepts "0, *"-l-"1, 1" Dataset

entity Entities #aed3ff {}
entity Entities.name #e0eeff {}
entity Entities.id #e0eeff{}
entity Entities.authors #e0eeff{}
entity Entities.UNIQUE #e0eeff{}

Entities "0, *"-u-"1, 1" Dataset

entity Datapoints #aed3ff {}
entity Datapoints.name #e0eeff {}
entity Datapoints.id #e0eeff {}
entity Datapoints.authors #e0eeff {}
entity Datapoints.UNIQUE #e0eeff {}

Datapoints "0, *"-u-"1, 1" Dataset

User.username -u-* User
User.id -u-* User
User.password -u-* User

Manager.datasets -u-* Manager

Dataset.name --* Dataset
Dataset.id --* Dataset
Dataset.authors --* Dataset
Dataset.concepts_id --* Dataset
Dataset.entities_id --* Dataset
Dataset.datapoints_id --* Dataset
Dataset.synonyms --* Dataset
Dataset.metadata --* Dataset

Concepts.name -l-* Concepts
Concepts.id -u-* Concepts
Concepts.authors -u-* Concepts
Concepts.UNIQUE -u-* Concepts

Entities.name -u-* Entities
Entities.id -u-* Entities
Entities.authors -u-* Entities
Entities.UNIQUE -u-* Entities

Datapoints.name -u-* Datapoints
Datapoints.id -u-* Datapoints
Datapoints.authors -u-* Datapoints
Datapoints.UNIQUE -u-* Datapoints

@enduml